<svg xmlns="http://www.w3.org/2000/svg" viewBox="0 0 1120 340" role="img" aria-label="Parcours CV"><style>.bg{fill:#f7faff}.card{fill:#fff;stroke:#d8e4f4;stroke-width:1.5}.title{font:700 28px Arial;fill:#0f172a}.h{font:700 18px Arial;fill:#0f172a}.p{font:400 13px Arial;fill:#475569}.arrow{font:700 30px Arial;fill:#2563eb}</style><rect class="bg" width="1120" height="340" rx="28"/><text class="title" x="60" y="58">Parcours CV</text><circle cx="82" cy="91" r="18" fill="#2563eb"/><text x="76" y="97" font-family="Arial" font-size="14" font-weight="700" fill="#fff">1</text><rect class="card" x="60" y="115" width="190" height="120" rx="22"/><text class="h" x="80" y="160">Connexion</text><text class="p" x="80" y="188">Compte WordPress autorisé</text><text class="arrow" x="252" y="183">→</text><circle cx="296" cy="91" r="18" fill="#2563eb"/><text x="290" y="97" font-family="Arial" font-size="14" font-weight="700" fill="#fff">2</text><rect class="card" x="274" y="115" width="190" height="120" rx="22"/><text class="h" x="294" y="160">Import PDF</text><text class="p" x="294" y="188">CV temporaire, 5 Mo max</text><text class="arrow" x="466" y="183">→</text><circle cx="510" cy="91" r="18" fill="#2563eb"/><text x="504" y="97" font-family="Arial" font-size="14" font-weight="700" fill="#fff">3</text><rect class="card" x="488" y="115" width="190" height="120" rx="22"/><text class="h" x="508" y="160">Analyse IA</text><text class="p" x="508" y="188">Fiche structurée</text><text class="arrow" x="680" y="183">→</text><circle cx="724" cy="91" r="18" fill="#2563eb"/><text x="718" y="97" font-family="Arial" font-size="14" font-weight="700" fill="#fff">4</text><rect class="card" x="702" y="115" width="190" height="120" rx="22"/><text class="h" x="722" y="160">Relecture</text><text class="p" x="722" y="188">Correction humaine</text><text class="arrow" x="894" y="183">→</text><circle cx="938" cy="91" r="18" fill="#2563eb"/><text x="932" y="97" font-family="Arial" font-size="14" font-weight="700" fill="#fff">5</text><rect class="card" x="916" y="115" width="190" height="120" rx="22"/><text class="h" x="936" y="160">Validation</text><text class="p" x="936" y="188">Profil prêt à exploiter</text></svg>